<svg id="Camada_2" data-name="Camada 2" xmlns="http://www.w3.org/2000/svg" viewBox="0 0 1494.55 763.67"><defs><style>.cls-1,.cls-2,.cls-6{fill:#fff;stroke:#000;stroke-miterlimit:10;}.cls-1,.cls-2{stroke-width:4px;}.cls-2{font-size:265px;font-family:KenyanCoffeeRg-BoldItalic, Kenyan Coffee;font-weight:700;font-style:italic;letter-spacing:0.01em;}.cls-3{letter-spacing:-0.01em;}.cls-4{letter-spacing:0.01em;}.cls-5{fill:#e20403;letter-spacing:0.01em;}.cls-6{stroke-width:5px;}</style></defs><g id="mult_vetor_branco_scan_red" data-name="mult vetor branco scan red"><path class="cls-1" d="M6598.17,7458.69c5.1,9.4,7.57,20.27,8.05,30.88.69,15.57-7.47,33.36-18.31,44.2a64.49,64.49,0,0,1-44.19,18.3c-16.94,0-32-7.08-44.2-18.3s-17.58-28-18.3-44.2c-.7-15.57,7.46-33.35,18.3-44.19a64.47,64.47,0,0,1,44.2-18.31c16.93,0,32,7.08,44.19,18.31.28.26.54.53.81.79a63.09,63.09,0,1,0,9.45,12.52Z" transform="translate(-6452.22 -6817.66)"/><text class="cls-2" transform="translate(3.34 565.37) scale(1.55 1.8)">MU<tspan class="cls-3" x="270.3" y="0">L</tspan><tspan class="cls-4" x="348.74" y="0">T</tspan><tspan class="cls-5" x="438.31" y="0">SCAN</tspan></text><path class="cls-6" d="M7761.71,7403.66l-8.82,50-1128.66,2.26a77,77,0,0,0-26-36.73c-18.23-13.88-37.41-14.86-48.49-15.43-10.23-.53-33-1.37-55.83,13.22a85.63,85.63,0,0,0-31.59,36c-12.41,26.88-6.45,51.61-4.41,59.51,1.87,7.29,7.47,27.91,26.45,44.82,28.88,25.74,65.17,21.87,74.2,20.57,8.35-1.2,29.63-4.57,47.76-22a79.53,79.53,0,0,0,17.62-25.49c37.15-.15,74.29-.31,127.44-.47l1072.9,4.6L7844,7403.66Zm-1173.8,130.11a64.49,64.49,0,0,1-44.19,18.3c-16.94,0-32-7.08-44.2-18.3s-17.58-28-18.3-44.2c-.7-15.57,7.46-33.35,18.3-44.19a64.47,64.47,0,0,1,44.2-18.31c16.93,0,32,7.08,44.19,18.31s17.58,28,18.31,44.19C6606.91,7505.14,6598.75,7522.93,6587.91,7533.77Z" transform="translate(-6452.22 -6817.66)"/><path id="tomada" class="cls-6" d="M6561.49,6976.65,6587.37,6862H7752.59q.38-10.65.74-21.3a27,27,0,0,1,8.15-14.6,26.61,26.61,0,0,1,11-6H7890V6851h42.61c.26-.05,5.44-1,8.9,2.86a9.7,9.7,0,0,1,2.26,7.45,12.21,12.21,0,0,1-.5,8.43,12.56,12.56,0,0,1-10.66,7h-41.87v41.14l38.2.73a13.55,13.55,0,0,1,14.94,13,14.81,14.81,0,0,1-8,12h-45.18q-.37,14.7-.74,29.39l-114.61-1.47a22.08,22.08,0,0,1-12.49-5.14,21.6,21.6,0,0,1-5.51-7.35,66.72,66.72,0,0,1-1.84-25.71l-1094.69-4.41-8.08,47.75Z" transform="translate(-6452.22 -6817.66)"/></g></svg>