<svg width="60" height="53" viewBox="0 0 60 53" fill="none" xmlns="http://www.w3.org/2000/svg">
<path d="M17.3 12.1679L9.27499 5.05705C9.0419 4.85114 8.76517 4.68781 8.46062 4.57638C8.15606 4.46495 7.82964 4.40759 7.49999 4.40759C7.17034 4.40759 6.84392 4.46495 6.53937 4.57638C6.23481 4.68781 5.95809 4.85114 5.72499 5.05705C5.25423 5.47288 4.98976 6.03688 4.98976 6.62496C4.98976 7.21304 5.25423 7.77704 5.72499 8.19288L11.4 13.25C8.51741 14.6975 5.86155 16.4718 3.49999 18.5279C3.03436 18.9416 2.77301 19.5013 2.77301 20.0848C2.77301 20.6682 3.03436 21.2279 3.49999 21.6416C3.73153 21.8503 4.00764 22.0163 4.31233 22.13C4.61702 22.2437 4.94422 22.3029 5.27499 22.3041C5.93084 22.3017 6.55934 22.0717 7.02499 21.6637C9.40734 19.5768 12.1394 17.8264 15.125 16.4741L18.85 19.875C15.7518 21.0712 12.9362 22.7718 10.55 24.8879C10.29 25.0875 10.0795 25.3325 9.93179 25.6074C9.78404 25.8822 9.7022 26.1811 9.6914 26.4853C9.6806 26.7894 9.74108 27.0923 9.86904 27.3748C9.997 27.6573 10.1897 27.9134 10.435 28.1271C10.6803 28.3407 10.9729 28.5073 11.2946 28.6163C11.6162 28.7253 11.9598 28.7744 12.304 28.7605C12.6481 28.7467 12.9853 28.6702 13.2943 28.5358C13.6034 28.4014 13.8777 28.212 14.1 27.9795C16.5239 25.848 19.4771 24.245 22.725 23.2979L26.775 26.8533C23.3092 27.4424 20.1224 28.9345 17.625 31.1375C17.365 31.3371 17.1545 31.5821 17.0068 31.8569C16.859 32.1318 16.7772 32.4307 16.7664 32.7349C16.7556 33.039 16.8161 33.3418 16.944 33.6244C17.072 33.9069 17.2647 34.163 17.51 34.3766C17.7553 34.5903 18.0479 34.7568 18.3696 34.8659C18.6912 34.9749 19.0348 35.024 19.379 35.0101C19.7231 34.9963 20.0603 34.9198 20.3693 34.7854C20.6784 34.651 20.9527 34.4616 21.175 34.2291C22.3268 33.1911 23.6992 32.3641 25.2136 31.7957C26.728 31.2272 28.3546 30.9285 30 30.9166C30.5274 30.9178 31.054 30.9548 31.575 31.027L50.725 47.9429C50.9574 48.1499 51.2339 48.3142 51.5386 48.4263C51.8432 48.5384 52.17 48.5961 52.5 48.5961C52.83 48.5961 53.1568 48.5384 53.4614 48.4263C53.7661 48.3142 54.0426 48.1499 54.275 47.9429C54.5093 47.7376 54.6953 47.4933 54.8222 47.2242C54.9491 46.9551 55.0145 46.6665 55.0145 46.375C55.0145 46.0834 54.9491 45.7948 54.8222 45.5257C54.6953 45.2566 54.5093 45.0123 54.275 44.807L17.3 12.1679ZM30 35.3333C28.5166 35.3333 27.0666 35.7218 25.8332 36.4498C24.5998 37.1778 23.6386 38.2125 23.0709 39.423C22.5032 40.6336 22.3547 41.9656 22.6441 43.2508C22.9335 44.5359 23.6478 45.7164 24.6967 46.6429C25.7456 47.5694 27.082 48.2004 28.5368 48.456C29.9917 48.7116 31.4997 48.5804 32.8701 48.079C34.2406 47.5776 35.4119 46.7284 36.236 45.6389C37.0601 44.5495 37.5 43.2686 37.5 41.9583C37.5 40.2012 36.7098 38.5161 35.3033 37.2737C33.8968 36.0313 31.9891 35.3333 30 35.3333ZM30 44.1666C29.5055 44.1666 29.0222 44.0371 28.6111 43.7945C28.1999 43.5518 27.8795 43.2069 27.6903 42.8034C27.5011 42.3999 27.4516 41.9558 27.548 41.5275C27.6445 41.0991 27.8826 40.7056 28.2322 40.3968C28.5819 40.0879 29.0273 39.8776 29.5123 39.7924C29.9972 39.7072 30.4999 39.7509 30.9567 39.9181C31.4135 40.0852 31.804 40.3683 32.0787 40.7314C32.3534 41.0946 32.5 41.5215 32.5 41.9583C32.5 42.544 32.2366 43.1057 31.7678 43.5198C31.2989 43.934 30.663 44.1666 30 44.1666ZM56.525 18.5279C52.53 15.0021 47.6852 12.3189 42.352 10.6784C37.0188 9.03801 31.3351 8.48276 25.725 9.05413C25.3967 9.08603 25.0787 9.17474 24.7892 9.31519C24.4997 9.45564 24.2444 9.64508 24.0378 9.8727C23.6205 10.3324 23.4271 10.9197 23.5 11.5054C23.5729 12.0911 23.9063 12.6272 24.4267 12.9958C24.9471 13.3643 25.612 13.5352 26.275 13.4708C31.1399 12.9803 36.0674 13.462 40.6933 14.8801C45.3191 16.2982 49.525 18.6165 53 21.6637C53.4708 22.0766 54.1079 22.3074 54.7713 22.3054C55.4347 22.3033 56.07 22.0685 56.5375 21.6527C57.0049 21.2368 57.2662 20.674 57.2639 20.088C57.2615 19.502 56.9958 18.9408 56.525 18.5279ZM45.9 27.8912C46.3753 28.2562 46.989 28.4493 47.6185 28.4318C48.248 28.4144 48.8469 28.1877 49.2954 27.7972C49.7438 27.4066 50.0089 26.8809 50.0376 26.3251C50.0662 25.7694 49.8564 25.2245 49.45 24.7995C46.1106 21.8156 41.9355 19.6668 37.35 18.572C37.0233 18.4606 36.6737 18.411 36.324 18.4265C35.9742 18.442 35.632 18.5222 35.3196 18.662C35.0071 18.8018 34.7314 18.998 34.5104 19.238C34.2893 19.4779 34.1277 19.7562 34.0362 20.0548C33.9446 20.3534 33.9251 20.6656 33.9789 20.9713C34.0327 21.277 34.1586 21.5693 34.3485 21.8292C34.5383 22.0892 34.7879 22.311 35.081 22.4803C35.3741 22.6496 35.7043 22.7626 36.05 22.812C39.7754 23.7241 43.1692 25.4742 45.9 27.8912Z" fill="white" stroke="#0038FF" stroke-opacity="0.72"/>
</svg>
