<svg width="64" height="55" viewBox="0 0 64 55" fill="none" xmlns="http://www.w3.org/2000/svg">
<g filter="url(#filter0_d_28_40)">
<path d="M32 33.125C30.5166 33.125 29.0666 33.5135 27.8332 34.2415C26.5999 34.9695 25.6386 36.0042 25.0709 37.2147C24.5032 38.4253 24.3547 39.7573 24.6441 41.0425C24.9335 42.3276 25.6478 43.5081 26.6967 44.4346C27.7456 45.3611 29.082 45.9921 30.5368 46.2477C31.9917 46.5033 33.4997 46.3721 34.8701 45.8707C36.2406 45.3693 37.4119 44.5201 38.236 43.4306C39.0601 42.3412 39.5 41.0603 39.5 39.75C39.5 37.9929 38.7098 36.3078 37.3033 35.0654C35.8968 33.823 33.9891 33.125 32 33.125ZM32 41.9583C31.5055 41.9583 31.0222 41.8288 30.6111 41.5862C30.1999 41.3435 29.8795 40.9986 29.6903 40.5951C29.5011 40.1916 29.4516 39.7475 29.548 39.3192C29.6445 38.8908 29.8826 38.4973 30.2322 38.1885C30.5819 37.8796 31.0273 37.6693 31.5123 37.5841C31.9972 37.4989 32.4999 37.5426 32.9567 37.7098C33.4135 37.8769 33.804 38.16 34.0787 38.5231C34.3534 38.8863 34.5 39.3132 34.5 39.75C34.5 40.3357 34.2366 40.8974 33.7678 41.3115C33.2989 41.7257 32.663 41.9583 32 41.9583ZM32 24.2917C27.3618 24.3058 22.9164 25.932 19.625 28.8187C19.1594 29.2325 18.898 29.7922 18.898 30.3756C18.898 30.959 19.1594 31.5187 19.625 31.9325C20.0934 32.3438 20.727 32.5747 21.3875 32.5747C22.048 32.5747 22.6816 32.3438 23.15 31.9325C24.3111 30.9042 25.6905 30.0884 27.2092 29.5318C28.7278 28.9751 30.3558 28.6886 32 28.6886C33.6442 28.6886 35.2722 28.9751 36.7908 29.5318C38.3095 30.0884 39.6889 30.9042 40.85 31.9325C41.3116 32.3486 41.9406 32.5867 42.6 32.595C43.1072 32.6208 43.6113 32.5094 44.0451 32.2758C44.4789 32.0422 44.8218 31.6973 45.0282 31.2872C45.2345 30.8771 45.2945 30.4212 45.2002 29.9802C45.1058 29.5392 44.8616 29.134 44.5 28.8187C42.8551 27.3761 40.9045 26.2337 38.7598 25.4569C36.615 24.6802 34.318 24.2842 32 24.2917ZM32 15.4583C24.71 15.4754 17.7214 18.0304 12.55 22.5692C12.3169 22.7751 12.132 23.0195 12.0058 23.2885C11.8797 23.5576 11.8148 23.8459 11.8148 24.1371C11.8148 24.7252 12.0792 25.2892 12.55 25.705C13.0208 26.1208 13.6592 26.3544 14.325 26.3544C14.9908 26.3544 15.6292 26.1208 16.1 25.705C20.3188 21.9831 26.0375 19.8925 32 19.8925C37.9625 19.8925 43.6812 21.9831 47.9 25.705C48.1336 25.9097 48.4106 26.0716 48.7152 26.1815C49.0198 26.2914 49.346 26.3471 49.675 26.3454C50.004 26.3471 50.3302 26.2914 50.6348 26.1815C50.9394 26.0716 51.2164 25.9097 51.45 25.705C51.6843 25.4997 51.8703 25.2555 51.9972 24.9864C52.1241 24.7172 52.1895 24.4286 52.1895 24.1371C52.1895 23.8456 52.1241 23.5569 51.9972 23.2878C51.8703 23.0187 51.6843 22.7745 51.45 22.5692C46.2785 18.0304 39.29 15.4754 32 15.4583ZM58.525 16.3196C55.0425 13.2414 50.9074 10.7995 46.3562 9.13351C41.8049 7.46749 36.9266 6.60999 32 6.60999C27.0734 6.60999 22.1951 7.46749 17.6438 9.13351C13.0925 10.7995 8.95751 13.2414 5.475 16.3196C5.00424 16.7354 4.73977 17.2994 4.73977 17.8875C4.73977 18.4756 5.00424 19.0396 5.475 19.4554C5.94576 19.8713 6.58424 20.1049 7.25 20.1049C7.91575 20.1049 8.55424 19.8713 9.025 19.4554C15.1194 14.0748 23.3834 11.0522 32 11.0522C40.6166 11.0522 48.8805 14.0748 54.975 19.4554C55.2074 19.6624 55.4839 19.8267 55.7885 19.9388C56.0932 20.0509 56.42 20.1086 56.75 20.1086C57.08 20.1086 57.4068 20.0509 57.7114 19.9388C58.0161 19.8267 58.2926 19.6624 58.525 19.4554C58.7593 19.2501 58.9453 19.0059 59.0722 18.7368C59.1991 18.4677 59.2645 18.179 59.2645 17.8875C59.2645 17.596 59.1991 17.3073 59.0722 17.0382C58.9453 16.7691 58.7593 16.5249 58.525 16.3196Z" fill="white" stroke="#0038FF" stroke-opacity="0.72"/>
</g>
<defs>
<filter id="filter0_d_28_40" x="-2" y="0" width="68" height="61" filterUnits="userSpaceOnUse" color-interpolation-filters="sRGB">
<feFlood flood-opacity="0" result="BackgroundImageFix"/>
<feColorMatrix in="SourceAlpha" type="matrix" values="0 0 0 0 0 0 0 0 0 0 0 0 0 0 0 0 0 0 127 0" result="hardAlpha"/>
<feOffset dy="4"/>
<feGaussianBlur stdDeviation="2"/>
<feComposite in2="hardAlpha" operator="out"/>
<feColorMatrix type="matrix" values="0 0 0 0 0 0 0 0 0 0 0 0 0 0 0 0 0 0 0.25 0"/>
<feBlend mode="normal" in2="BackgroundImageFix" result="effect1_dropShadow_28_40"/>
<feBlend mode="normal" in="SourceGraphic" in2="effect1_dropShadow_28_40" result="shape"/>
</filter>
</defs>
</svg>
